<svg width="408" height="330" viewBox="0 0 408 330" fill="none" xmlns="http://www.w3.org/2000/svg">
<rect width="408" height="330" fill="#E5E5E5"/>
<g id="Group 1" filter="url(#filter0_d)">
<g id="undraw_spooky_self_gn9s 1" clip-path="url(#clip0)">
<path id="Vector" d="M9.62923 138.89C12.7373 138.89 15.2569 136.37 15.2569 133.262C15.2569 130.154 12.7373 127.634 9.62923 127.634C6.52114 127.634 4.00153 130.154 4.00153 133.262C4.00153 136.37 6.52114 138.89 9.62923 138.89Z" fill="#F2F2F2"/>
<path id="Vector_2" d="M49.2648 173.291C52.3729 173.291 54.8925 170.772 54.8925 167.664C54.8925 164.556 52.3729 162.036 49.2648 162.036C46.1567 162.036 43.6371 164.556 43.6371 167.664C43.6371 170.772 46.1567 173.291 49.2648 173.291Z" fill="#F2F2F2"/>
<path id="Vector_3" d="M27.2937 169.205C30.4018 169.205 32.9214 166.685 32.9214 163.577C32.9214 160.469 30.4018 157.95 27.2937 157.95C24.1856 157.95 21.666 160.469 21.666 163.577C21.666 166.685 24.1856 169.205 27.2937 169.205Z" fill="#F2F2F2"/>
<path id="Vector_4" d="M57.5945 237.508C57.4436 237.393 53.855 234.58 50.1863 227.289C46.8206 220.599 42.7669 208.702 42.5696 190.011C42.1963 154.602 18.4238 135.042 18.1834 134.848L18.727 134.174C18.788 134.223 24.8927 139.194 30.9497 148.514C38.9703 160.876 43.3015 175.267 43.4356 190.002C43.8084 225.35 57.9797 236.712 58.1227 236.823L57.5945 237.508Z" fill="#F2F2F2"/>
<path id="Vector_5" d="M34.9846 148.169C38.0927 148.169 40.6123 145.649 40.6123 142.541C40.6123 139.433 38.0927 136.913 34.9846 136.913C31.8765 136.913 29.3569 139.433 29.3569 142.541C29.3569 145.649 31.8765 148.169 34.9846 148.169Z" fill="#F2F2F2"/>
<path id="Vector_6" d="M35.2952 194.883C38.4033 194.883 40.9229 192.363 40.9229 189.255C40.9229 186.147 38.4033 183.628 35.2952 183.628C32.1871 183.628 29.6675 186.147 29.6675 189.255C29.6675 192.363 32.1871 194.883 35.2952 194.883Z" fill="#F2F2F2"/>
<path id="Vector_7" d="M60.8427 236.484C60.8427 236.484 50.6246 225.567 62.6633 209.818L60.8427 236.484Z" fill="#F2F2F2"/>
<path id="Vector_8" d="M54.2911 238.729C54.2911 238.729 46.621 225.894 28.1594 233.116L54.2911 238.729Z" fill="#F2F2F2"/>
<path id="Vector_9" d="M9.62923 138.89C12.7373 138.89 15.2569 136.37 15.2569 133.262C15.2569 130.154 12.7373 127.634 9.62923 127.634C6.52114 127.634 4.00153 130.154 4.00153 133.262C4.00153 136.37 6.52114 138.89 9.62923 138.89Z" fill="#F2F2F2"/>
<path id="Vector_10" d="M49.2648 173.291C52.3729 173.291 54.8925 170.772 54.8925 167.664C54.8925 164.556 52.3729 162.036 49.2648 162.036C46.1567 162.036 43.6371 164.556 43.6371 167.664C43.6371 170.772 46.1567 173.291 49.2648 173.291Z" fill="#F2F2F2"/>
<path id="Vector_11" d="M27.2937 169.205C30.4018 169.205 32.9214 166.685 32.9214 163.577C32.9214 160.469 30.4018 157.95 27.2937 157.95C24.1856 157.95 21.666 160.469 21.666 163.577C21.666 166.685 24.1856 169.205 27.2937 169.205Z" fill="#F2F2F2"/>
<path id="Vector_12" d="M57.5945 237.508C57.4436 237.393 53.855 234.58 50.1863 227.289C46.8206 220.599 42.7669 208.702 42.5696 190.011C42.1963 154.602 18.4238 135.042 18.1834 134.848L18.727 134.174C18.788 134.223 24.8927 139.194 30.9497 148.514C38.9703 160.876 43.3015 175.267 43.4356 190.002C43.8084 225.35 57.9797 236.712 58.1227 236.823L57.5945 237.508Z" fill="#F2F2F2"/>
<path id="Vector_13" d="M34.9846 148.169C38.0927 148.169 40.6123 145.649 40.6123 142.541C40.6123 139.433 38.0927 136.913 34.9846 136.913C31.8765 136.913 29.3569 139.433 29.3569 142.541C29.3569 145.649 31.8765 148.169 34.9846 148.169Z" fill="#F2F2F2"/>
<path id="Vector_14" d="M35.2952 194.883C38.4033 194.883 40.9229 192.363 40.9229 189.255C40.9229 186.147 38.4033 183.628 35.2952 183.628C32.1871 183.628 29.6675 186.147 29.6675 189.255C29.6675 192.363 32.1871 194.883 35.2952 194.883Z" fill="#F2F2F2"/>
<path id="Vector_15" d="M60.8427 236.484C60.8427 236.484 50.6246 225.567 62.6633 209.818L60.8427 236.484Z" fill="#F2F2F2"/>
<path id="Vector_16" d="M54.2911 238.729C54.2911 238.729 46.621 225.894 28.1594 233.116L54.2911 238.729Z" fill="#F2F2F2"/>
<path id="Vector_17" d="M68.6099 234.015H64.2809L65.5796 226.656H68.6099V234.015Z" fill="#3F3D56"/>
<path id="Vector_18" d="M66.941 277.396C81.0124 277.396 92.4196 267.552 92.4196 255.408C92.4196 243.265 81.0124 233.421 66.941 233.421C52.8696 233.421 41.4624 243.265 41.4624 255.408C41.4624 267.552 52.8696 277.396 66.941 277.396Z" fill="#F65C26"/>
<path id="Vector_19" opacity="0.1" d="M50.0065 272.25C45.6983 253.765 51.4209 237.683 51.4792 237.523L52.2926 237.819C52.2355 237.977 46.6021 253.828 50.8499 272.054L50.0065 272.25Z" fill="black"/>
<path id="Vector_20" opacity="0.1" d="M81.2948 273.968L80.4916 273.645C88.7087 253.252 80.5926 237.371 80.5098 237.213L81.2766 236.811C81.3612 236.973 89.6599 253.208 81.2948 273.968Z" fill="black"/>
<path id="Vector_21" opacity="0.1" d="M59.1463 276.68C48.7449 260.665 58.9819 234.479 59.0867 234.216L59.8908 234.537C59.7881 234.795 49.7159 260.571 59.8726 276.208L59.1463 276.68Z" fill="black"/>
<path id="Vector_22" opacity="0.1" d="M74.7358 276.68L74.0095 276.208C84.17 260.565 74.0941 234.795 73.9913 234.537L74.7954 234.216C74.9003 234.479 85.1373 260.665 74.7358 276.68Z" fill="black"/>
<path id="Vector_23" opacity="0.1" d="M57.1381 242.087L60.2766 247.523L63.4151 252.959H57.1381H50.861L53.9996 247.523L57.1381 242.087Z" fill="black"/>
<path id="Vector_24" d="M57.1381 243.243L59.6095 247.523L62.081 251.804H57.1381H52.1953L54.6667 247.523L57.1381 243.243Z" fill="#3F3D56"/>
<path id="Vector_25" opacity="0.1" d="M67.5277 259.859L65.9043 257.047L64.2809 254.236H67.5277H70.7745L69.1511 257.047L67.5277 259.859Z" fill="black"/>
<path id="Vector_26" d="M67.5277 259.261L66.2494 257.047L64.971 254.833H67.5277H70.0844L68.8061 257.047L67.5277 259.261Z" fill="#3F3D56"/>
<path id="Vector_27" opacity="0.1" d="M77.0515 242.087L80.1901 247.523L83.3286 252.959H77.0515H70.7745L73.913 247.523L77.0515 242.087Z" fill="black"/>
<path id="Vector_28" d="M77.0515 243.243L79.5229 247.523L81.9944 251.804H77.0515H72.1086L74.5801 247.523L77.0515 243.243Z" fill="#3F3D56"/>
<path id="Vector_29" opacity="0.1" d="M77.701 261.698H56.9218V266.073H77.701V261.698Z" fill="black"/>
<path id="Vector_30" d="M75.5365 262.154H59.0863V265.617H75.5365V262.154Z" fill="#3F3D56"/>
<path id="Vector_31" d="M62.7658 264.417L61.4875 262.203L60.2091 259.989H62.7658H65.3225L64.0442 262.203L62.7658 264.417Z" fill="#F65C26"/>
<path id="Vector_32" d="M71.4238 264.417L70.1454 262.203L68.8671 259.989H71.4238H73.9805L72.7021 262.203L71.4238 264.417Z" fill="#F65C26"/>
<path id="Vector_33" d="M205.478 121.09L196.808 88.1846L198.083 87.8587C198.083 87.8587 189.295 44.9131 184.578 42.5566C180.885 40.7113 179.181 41.4219 179.181 41.4219L161.742 42.3966C159.446 41.0025 157.471 39.1395 155.945 36.9293C161.838 35.3611 167.27 32.6996 170.747 28.289L169.508 24.7816C169.508 24.7816 171.674 24.8842 172.294 27.9791L173.532 26.1217C173.532 26.1217 171.364 23.3368 165.895 20.14C162.306 18.0418 160.227 13.0987 159.222 9.94915C158.413 7.31304 156.827 4.98279 154.671 3.26401C150.87 0.306474 144.487 -2.36778 136.797 3.43472C136.797 3.43472 129.059 2.302 126.483 13.5481C123.907 24.7943 118.958 37.5885 118.958 37.5885L123.292 37.7937C123.292 37.7937 122.877 30.3657 125.249 28.8175L126.077 38.3088C131.484 38.9613 136.936 39.1571 142.375 38.8941L142.056 45.6376L123.369 54.0775C123.369 54.0775 121.806 53.6519 121.95 58.0546C122.093 62.4574 127.36 107.194 127.36 107.194L128.602 106.883L133.192 140C133.192 140 130.074 161.304 139.305 159.455C143.198 158.676 143.68 154.638 142.935 150.229C143.554 151.68 144.233 153.145 144.984 154.625C159.621 183.452 162.038 191.831 162.038 191.831L178.67 249.062C180.729 249.247 182.803 249.153 184.836 248.784L188.758 262.552C188.758 262.552 185.922 277.891 195.437 277.462C195.532 277.458 195.626 277.453 195.719 277.448C196.895 277.376 198.038 277.027 199.053 276.429C200.069 275.832 200.928 275.002 201.562 274.009C202.196 273.015 202.585 271.886 202.699 270.713C202.813 269.541 202.648 268.358 202.217 267.261L199.267 259.708C199.267 259.708 197.613 248.604 193.925 244.584C193.953 244.56 193.981 244.538 194.008 244.513L180.642 188.843L173.815 154.759L185.614 191.54L193.151 229.175C193.151 229.175 193.485 229.397 194.064 229.716C194.119 231.664 194.483 233.59 195.141 235.423C196.705 239.541 199.833 251.471 199.833 251.471C199.833 251.471 202.393 264.252 207.363 263.257C209.138 262.901 210.334 261.06 211.137 258.84C211.957 256.492 212.292 254.002 212.122 251.52C211.952 249.039 211.28 246.618 210.146 244.404L205.367 234.852L204.723 231.639C206.847 230.997 208.856 229.472 210.336 226.471L203.365 184.292C203.365 184.292 197.762 139.57 193.685 124.583C195.684 123.594 196.957 122.797 196.957 122.797L184.31 100.219C182.968 98.3076 181.838 96.2553 180.943 94.0983L180.935 94.0997C179.608 90.9386 178.491 86.8714 178.941 82.7042C179.126 80.8437 179.644 79.0315 180.469 77.3538C180.866 76.5336 181.189 75.6802 181.435 74.8032L184.734 91.271L185.583 91.0539L199.513 120.808C199.513 120.808 198.098 143.248 207.33 141.399C216.561 139.551 205.478 121.09 205.478 121.09ZM142.592 89.9846C144.273 93.2521 143.656 97.4747 143.458 98.5484C143.425 98.7175 143.407 98.8098 143.407 98.8098C142.713 99.476 142.12 100.239 141.645 101.076L138.557 85.6566C139.412 86.4475 140.324 87.2092 141.273 88.1585C141.804 88.6959 142.249 89.3118 142.592 89.9846V89.9846ZM140.21 103.978C140.135 104.155 140.062 104.335 139.989 104.517L140.009 104.028L140.21 103.978ZM138.589 137.442L138.644 136.134C138.803 136.983 138.981 137.843 139.179 138.712C138.82 137.912 138.589 137.442 138.589 137.442L138.589 137.442Z" fill="#F2F2F2"/>
<path id="Vector_34" d="M364.471 276.31H26.6559V277.514H364.471V276.31Z" fill="#3F3D56"/>
<path id="Vector_35" d="M202.809 22.7597H198.48L199.779 15.4004H202.809V22.7597Z" fill="#3F3D56"/>
<path id="Vector_36" d="M167.464 124.544L165.291 160.754C165.291 160.754 158.049 181.031 167.464 181.031C176.878 181.031 171.084 159.305 171.084 159.305L179.775 123.82L167.464 124.544Z" fill="#FF9A63"/>
<path id="Vector_37" d="M237.71 120.199L239.882 156.409C239.882 156.409 247.124 176.686 237.71 176.686C228.295 176.686 234.089 154.96 234.089 154.96L225.398 119.475L237.71 120.199Z" fill="#FF9A63"/>
<path id="Vector_38" d="M194.258 273.727L195.707 291.832C195.707 291.832 189.913 306.315 199.328 307.764C199.422 307.778 199.515 307.792 199.607 307.805C200.775 307.965 201.963 307.848 203.076 307.461C204.189 307.074 205.195 306.43 206.012 305.58C206.828 304.731 207.432 303.7 207.774 302.572C208.116 301.445 208.186 300.252 207.979 299.092L206.57 291.107C206.57 291.107 207.294 276.624 202.949 273.727C198.604 270.83 194.258 273.727 194.258 273.727Z" fill="#2F2E41"/>
<path id="Vector_39" d="M208.018 257.795C208.018 257.795 206.57 262.14 207.294 266.485C208.018 270.83 208.742 283.141 208.742 283.141C208.742 283.141 208.742 296.177 213.812 296.177C215.622 296.177 217.155 294.606 218.379 292.587C219.644 290.446 220.462 288.07 220.782 285.603C221.103 283.137 220.919 280.631 220.243 278.237L217.432 267.933V259.967L208.018 257.795Z" fill="#2F2E41"/>
<path id="Vector_40" d="M181.223 125.269C181.223 125.269 165.291 146.27 173.981 177.41C182.671 208.55 183.396 217.24 183.396 217.24L188.465 276.624C188.465 276.624 197.155 279.52 204.397 275.175L202.224 217.964V183.204L206.57 221.585V259.967C206.57 259.967 216.708 270.106 223.95 260.691L225.398 217.964C225.398 217.964 229.744 158.581 226.847 152.788C223.95 146.994 217.432 126.717 217.432 126.717L181.223 125.269Z" fill="#2F2E41"/>
<path id="Vector_41" d="M201.14 66.1403C215.212 66.1403 226.619 56.2962 226.619 44.153C226.619 32.0097 215.212 22.1656 201.14 22.1656C187.069 22.1656 175.662 32.0097 175.662 44.153C175.662 56.2962 187.069 66.1403 201.14 66.1403Z" fill="#FF9A63"/>
<path id="Vector_42" d="M195.707 57.1951L191.362 74.5756L204.397 112.233L214.536 72.403C214.536 72.403 205.121 65.8854 207.294 57.1951H195.707Z" fill="#FF9A63"/>
<path id="Vector_43" d="M231.192 156.409C231.192 156.409 210.191 164.375 205.845 152.064C201.5 139.752 202.225 130.338 202.225 130.338C202.225 130.338 195.707 155.684 184.844 155.684C173.981 155.684 168.188 152.064 168.188 152.064C168.188 152.064 176.154 126.717 183.396 122.372C183.396 122.372 183.432 122.285 183.497 122.126C183.903 121.112 185.336 117.093 184.33 113.559C184.126 112.831 183.81 112.14 183.396 111.509C180.499 107.164 177.602 105.716 178.326 94.8528L172.533 74.5756L192.513 69.9698L202.949 102.819L212.45 70.6577L229.744 73.1272C229.744 73.1272 231.192 99.1979 223.95 108.612C222.811 110.095 221.948 111.771 221.401 113.559C220.141 117.556 220.438 121.764 221.119 125.124H221.126C221.58 127.415 222.285 129.649 223.226 131.786L231.192 156.409Z" fill="#3F3D56"/>
<path id="Vector_44" d="M225.398 73.8514L229.744 73.1272C229.744 73.1272 231.554 72.7651 234.813 75.2998C238.974 78.5366 239.158 122.372 239.158 122.372L225.398 123.096V73.8514V73.8514Z" fill="#3F3D56"/>
<path id="Vector_45" d="M176.154 76.024L172.533 74.5756C172.533 74.5756 171.085 73.8514 170.36 78.1965C169.636 82.5417 166.015 127.441 166.015 127.441L181.223 126.717V94.1286L176.154 76.024Z" fill="#3F3D56"/>
<path id="Vector_46" opacity="0.1" d="M184.206 60.9948C179.897 42.5098 185.62 26.428 185.678 26.2678L186.492 26.5638C186.435 26.7217 180.801 42.573 185.049 60.7982L184.206 60.9948Z" fill="black"/>
<path id="Vector_47" opacity="0.1" d="M215.494 62.7128L214.691 62.3894C222.908 41.9964 214.792 26.1158 214.709 25.9579L215.476 25.5555C215.56 25.7172 223.859 41.9529 215.494 62.7128Z" fill="black"/>
<path id="Vector_48" opacity="0.1" d="M193.345 65.4248C182.944 49.4096 193.181 23.2236 193.286 22.9608L194.09 23.2813C193.987 23.5398 183.915 49.3151 194.072 64.953L193.345 65.4248Z" fill="black"/>
<path id="Vector_49" opacity="0.1" d="M208.935 65.4248L208.209 64.953C218.369 49.3094 208.293 23.5398 208.19 23.2813L208.995 22.9608C209.099 23.2236 219.336 49.4096 208.935 65.4248Z" fill="black"/>
<path id="Vector_50" opacity="0.1" d="M191.337 30.832L194.476 36.268L197.614 41.7039H191.337H185.06L188.199 36.268L191.337 30.832Z" fill="black"/>
<path id="Vector_51" d="M191.337 31.9875L193.809 36.268L196.28 40.5485H191.337H186.394L188.866 36.268L191.337 31.9875Z" fill="#3F3D56"/>
<path id="Vector_52" opacity="0.1" d="M201.727 48.6035L200.103 45.7918L198.48 42.9801H201.727H204.974L203.35 45.7918L201.727 48.6035Z" fill="black"/>
<path id="Vector_53" d="M201.727 48.0061L200.448 45.7918L199.17 43.5775H201.727H204.284L203.005 45.7918L201.727 48.0061Z" fill="#3F3D56"/>
<path id="Vector_54" opacity="0.1" d="M211.251 30.832L214.389 36.268L217.528 41.7039H211.251H204.974L208.112 36.268L211.251 30.832Z" fill="black"/>
<path id="Vector_55" d="M211.251 31.9875L213.722 36.268L216.193 40.5485H211.251H206.308L208.779 36.268L211.251 31.9875Z" fill="#3F3D56"/>
<path id="Vector_56" opacity="0.1" d="M211.9 50.4427H191.121V54.8172H211.9V50.4427Z" fill="black"/>
<path id="Vector_57" d="M209.736 50.8983H193.285V54.3615H209.736V50.8983Z" fill="#3F3D56"/>
<path id="Vector_58" d="M196.965 53.1619L195.687 50.9481L194.408 48.7338H196.965H199.522L198.243 50.9481L196.965 53.1619Z" fill="#FF9A63"/>
<path id="Vector_59" d="M205.623 53.1619L204.345 50.9481L203.066 48.7338H205.623H208.18L206.901 50.9481L205.623 53.1619Z" fill="#FF9A63"/>
<path id="Vector_60" d="M203.35 113.535H202.11L202.482 111.427H203.35V113.535Z" fill="#2F2E41"/>
<path id="Vector_61" d="M202.872 125.958C206.902 125.958 210.169 123.139 210.169 119.661C210.169 116.183 206.902 113.364 202.872 113.364C198.842 113.364 195.575 116.183 195.575 119.661C195.575 123.139 198.842 125.958 202.872 125.958Z" fill="#FF9A63"/>
<path id="Vector_62" opacity="0.1" d="M197.721 124.555C196.963 121.202 197.112 117.709 198.153 114.433L198.967 114.729C197.999 117.849 197.86 121.168 198.564 124.358L197.721 124.555Z" fill="black"/>
<path id="Vector_63" opacity="0.1" d="M207.269 125.092L206.466 124.769C208.759 119.078 206.507 114.637 206.484 114.593L207.251 114.191C207.353 114.386 209.717 119.015 207.269 125.092Z" fill="black"/>
<path id="Vector_64" opacity="0.1" d="M200.38 125.921C197.315 121.202 200.211 113.791 200.335 113.478L201.139 113.798C201.111 113.871 198.286 121.108 201.106 125.45L200.38 125.921Z" fill="black"/>
<path id="Vector_65" opacity="0.1" d="M205.363 125.921L204.637 125.45C207.46 121.102 204.633 113.871 204.604 113.798L205.408 113.478C205.533 113.791 208.428 121.202 205.363 125.921Z" fill="black"/>
<path id="Vector_66" d="M327.485 311.071H317.961V265.617C321.135 263.79 324.31 263.79 327.485 265.617V311.071Z" fill="#D0CDE1"/>
<path id="Vector_67" d="M369.043 310.638H279.865V311.504H369.043V310.638Z" fill="#3F3D56"/>
<path id="Vector_68" d="M309.303 321.028H299.779V275.574C302.954 273.747 306.128 273.747 309.303 275.574V321.028Z" fill="#D0CDE1"/>
<path id="Vector_69" d="M305.407 266.916H303.675V276.007H305.407V266.916Z" fill="#3F3D56"/>
<path id="Vector_70" d="M309.736 263.02C309.736 264.397 309.188 265.719 308.214 266.693C307.24 267.667 305.919 268.214 304.541 268.214C303.163 268.214 301.842 267.667 300.868 266.693C299.893 265.719 299.346 264.397 299.346 263.02C299.346 260.151 304.541 250.898 304.541 250.898C304.541 250.898 309.736 260.151 309.736 263.02Z" fill="#FF9A63"/>
<path id="Vector_71" d="M323.588 256.959H321.857V266.05H323.588V256.959Z" fill="#3F3D56"/>
<path id="Vector_72" d="M327.917 253.063C327.917 254.441 327.37 255.762 326.396 256.736C325.422 257.71 324.1 258.258 322.723 258.258C321.345 258.258 320.024 257.71 319.049 256.736C318.075 255.762 317.528 254.441 317.528 253.063C317.528 250.194 322.723 240.942 322.723 240.942C322.723 240.942 327.917 250.194 327.917 253.063Z" fill="#FF9A63"/>
<path id="Vector_73" d="M345.666 321.028H336.143V275.574C339.317 273.747 342.492 273.747 345.666 275.574V321.028Z" fill="#D0CDE1"/>
<path id="Vector_74" d="M341.77 266.916H340.039V276.007H341.77V266.916Z" fill="#3F3D56"/>
<path id="Vector_75" d="M346.099 263.02C346.099 264.397 345.552 265.719 344.578 266.693C343.604 267.667 342.282 268.214 340.904 268.214C339.527 268.214 338.205 267.667 337.231 266.693C336.257 265.719 335.71 264.397 335.71 263.02C335.71 260.151 340.904 250.898 340.904 250.898C340.904 250.898 346.099 260.151 346.099 263.02Z" fill="#FF9A63"/>
<path id="Vector_76" d="M369.043 320.595H279.865V321.461H369.043V320.595Z" fill="#3F3D56"/>
<path id="Vector_77" d="M100.18 85.1585C100.331 86.2112 100.337 87.2797 100.197 88.334C100.168 88.5729 100.132 88.8077 100.089 89.0398L100.09 89.0415C99.5873 91.5358 98.5841 93.9022 97.1408 95.9975C97.0464 96.1335 96.9925 96.2042 96.9925 96.2042L96.7903 96.0499C95.1874 94.7698 93.7974 93.2439 92.6719 91.5289C92.5734 91.3734 92.4747 91.2162 92.3807 91.0547C91.5443 89.6892 90.9804 88.1747 90.7203 86.5947L90.7168 86.5719C90.6917 86.4037 90.6701 86.2349 90.654 86.0672C90.5222 84.5909 90.6492 83.103 91.0292 81.6704C91.0741 81.4917 91.1214 81.3163 91.1724 81.142C91.7485 79.2162 92.62 77.3915 93.7557 75.7329C93.8501 75.597 93.904 75.5262 93.904 75.5262C93.904 75.5262 93.9762 75.5782 94.1062 75.6806C95.6638 76.9241 97.0208 78.4 98.1295 80.0563C98.2269 80.2048 98.3229 80.3553 98.4175 80.5095C99.0664 81.5536 99.5667 82.683 99.904 83.8651C99.9617 84.0714 100.013 84.2823 100.057 84.4943C100.106 84.7127 100.146 84.9342 100.18 85.1585Z" fill="#F2F2F2"/>
<path id="Vector_78" d="M275.619 82.8205C276.3 83.637 276.866 84.5435 277.3 85.5144C277.401 85.733 277.493 85.952 277.578 86.1718L277.58 86.1732C278.461 88.56 278.849 91.1008 278.719 93.6419C278.71 93.8071 278.702 93.8956 278.702 93.8956L278.449 93.8704C276.412 93.6218 274.428 93.0523 272.57 92.183C272.405 92.1023 272.238 92.0203 272.074 91.9321C270.645 91.2087 269.37 90.2152 268.32 89.0068L268.305 88.9892C268.195 88.8592 268.088 88.7268 267.987 88.5925C267.1 87.405 266.427 86.0717 265.999 84.6528C265.943 84.4771 265.891 84.303 265.844 84.1279C265.323 82.1862 265.108 80.1756 265.204 78.1678C265.213 78.0026 265.222 77.914 265.222 77.914C265.222 77.914 265.311 77.9203 265.475 77.9393C267.454 78.1805 269.383 78.7248 271.196 79.553C271.357 79.6283 271.518 79.706 271.679 79.7876C272.779 80.3359 273.798 81.0348 274.705 81.864C274.863 82.0094 275.017 82.1621 275.166 82.3193C275.322 82.4797 275.473 82.6468 275.619 82.8205Z" fill="#F2F2F2"/>
<path id="Vector_79" d="M301.605 159.29C301.261 160.296 300.78 161.251 300.175 162.126C300.041 162.325 299.901 162.518 299.758 162.705L299.758 162.707C298.175 164.699 296.205 166.35 293.966 167.559C293.82 167.637 293.74 167.675 293.74 167.675L293.63 167.446C292.786 165.577 292.242 163.585 292.02 161.546C292.004 161.363 291.987 161.178 291.977 160.991C291.854 159.395 292.041 157.79 292.528 156.264L292.535 156.243C292.59 156.081 292.647 155.921 292.709 155.764C293.264 154.39 294.054 153.123 295.044 152.02C295.165 151.881 295.287 151.747 295.412 151.615C296.801 150.162 298.408 148.934 300.174 147.974C300.32 147.896 300.4 147.857 300.4 147.857C300.4 147.857 300.441 147.936 300.51 148.087C301.331 149.903 301.868 151.834 302.101 153.814C302.12 153.99 302.137 154.168 302.151 154.349C302.254 155.574 302.186 156.807 301.948 158.013C301.905 158.223 301.855 158.434 301.798 158.643C301.742 158.86 301.677 159.075 301.605 159.29Z" fill="#F2F2F2"/>
<path id="Vector_80" d="M381.361 83.8028C381.338 76.0344 378.242 68.5906 372.749 63.0975C367.256 57.6044 359.812 54.5083 352.044 54.4856V54.4856C351.792 54.4856 351.541 54.4888 351.29 54.4952C331.461 55.0021 318.982 76.15 327.7 93.9662L345.203 129.733C345.206 130.769 345.619 131.761 346.351 132.494C347.084 133.226 348.076 133.639 349.112 133.642H357.907L361.49 122.892L370.173 133.642H382.012L385.596 122.892L394.278 133.642H399.929C400.964 133.639 401.957 133.226 402.689 132.494C403.422 131.761 403.834 130.769 403.837 129.733L381.361 83.8028Z" fill="#CFCCE0"/>
<path id="Vector_81" d="M337.711 83.4771C342.208 83.4771 345.855 79.8311 345.855 75.3334C345.855 70.8358 342.208 67.1898 337.711 67.1898C333.213 67.1898 329.567 70.8358 329.567 75.3334C329.567 79.8311 333.213 83.4771 337.711 83.4771Z" fill="#3F3D56"/>
<path id="Vector_82" d="M359.536 83.4771C364.034 83.4771 367.68 79.8311 367.68 75.3334C367.68 70.8358 364.034 67.1898 359.536 67.1898C355.038 67.1898 351.392 70.8358 351.392 75.3334C351.392 79.8311 355.038 83.4771 359.536 83.4771Z" fill="#3F3D56"/>
<path id="Vector_83" d="M337.711 78.2651C339.33 78.2651 340.643 76.9526 340.643 75.3334C340.643 73.7143 339.33 72.4017 337.711 72.4017C336.092 72.4017 334.779 73.7143 334.779 75.3334C334.779 76.9526 336.092 78.2651 337.711 78.2651Z" fill="#CFCCE0"/>
<path id="Vector_84" d="M359.536 78.2651C361.155 78.2651 362.468 76.9526 362.468 75.3334C362.468 73.7143 361.155 72.4017 359.536 72.4017C357.917 72.4017 356.604 73.7143 356.604 75.3334C356.604 76.9526 357.917 78.2651 359.536 78.2651Z" fill="#CFCCE0"/>
<path id="Vector_85" d="M340.643 71.7502C341.542 71.7502 342.271 71.021 342.271 70.1215C342.271 69.2219 341.542 68.4927 340.643 68.4927C339.743 68.4927 339.014 69.2219 339.014 70.1215C339.014 71.021 339.743 71.7502 340.643 71.7502Z" fill="#CFCCE0"/>
<path id="Vector_86" d="M362.468 71.7502C363.367 71.7502 364.096 71.021 364.096 70.1215C364.096 69.2219 363.367 68.4927 362.468 68.4927C361.568 68.4927 360.839 69.2219 360.839 70.1215C360.839 71.021 361.568 71.7502 362.468 71.7502Z" fill="#CFCCE0"/>
<path id="Vector_87" d="M347.993 98.1764C350.623 98.1764 352.755 96.0445 352.755 93.4145C352.755 90.7846 350.623 88.6526 347.993 88.6526C345.363 88.6526 343.231 90.7846 343.231 93.4145C343.231 96.0445 345.363 98.1764 347.993 98.1764Z" fill="#3F3D56"/>
<path id="Vector_88" d="M369.163 65.0385L376.033 57.2417C377.154 55.9694 378.318 54.6637 379.847 53.9319C381.377 53.2001 383.382 53.1854 384.61 54.3544C386.483 56.1367 385.153 59.77 382.65 60.4167C380.147 61.0633 377.474 59.2016 376.596 56.7698C376.087 55.2119 376.142 53.5241 376.754 52.0031C377.365 50.4821 378.493 49.2254 379.939 48.4539C383.621 46.6292 388.077 48.4442 392.121 47.7168C397.225 46.7986 400.984 41.2253 399.924 36.1486" fill="#CFCCE0"/>
<path id="Vector_89" d="M337.213 63.3069L330.344 55.5101C329.223 54.2378 328.059 52.9321 326.529 52.2003C324.999 51.4685 322.994 51.4538 321.766 52.6228C319.893 54.4051 321.223 58.0384 323.726 58.6851C326.229 59.3317 328.903 57.4701 329.78 55.0382C330.29 53.4803 330.234 51.7925 329.623 50.2715C329.011 48.7505 327.883 47.4938 326.437 46.7223C322.756 44.8976 318.3 46.7126 314.256 45.9852C309.151 45.067 305.392 39.4937 306.453 34.417" fill="#CFCCE0"/>
</g>
</g>
<defs>
<filter id="filter0_d" x="0" y="0" width="408" height="329.645" filterUnits="userSpaceOnUse" color-interpolation-filters="sRGB">
<feFlood flood-opacity="0" result="BackgroundImageFix"/>
<feColorMatrix in="SourceAlpha" type="matrix" values="0 0 0 0 0 0 0 0 0 0 0 0 0 0 0 0 0 0 127 0" result="hardAlpha"/>
<feOffset dy="4"/>
<feGaussianBlur stdDeviation="2"/>
<feComposite in2="hardAlpha" operator="out"/>
<feColorMatrix type="matrix" values="0 0 0 0 0 0 0 0 0 0 0 0 0 0 0 0 0 0 0.25 0"/>
<feBlend mode="normal" in2="BackgroundImageFix" result="effect1_dropShadow"/>
<feBlend mode="normal" in="SourceGraphic" in2="effect1_dropShadow" result="shape"/>
</filter>
<clipPath id="clip0">
<rect width="400" height="321.645" fill="white" transform="translate(4)"/>
</clipPath>
</defs>
</svg>
